<?xml version="1.0" encoding="utf-8"?><svg xmlns="http://www.w3.org/2000/svg" xmlns:xlink="http://www.w3.org/1999/xlink"><symbol fill="none" viewBox="0 0 100 100" id="Play" xmlns="http://www.w3.org/2000/svg"><circle cx="50" cy="50" r="50" fill="#fff"/><path d="M63 50L44.25 62.99V37.01L63 50z" fill="#1D1D1F"/></symbol><symbol fill="none" viewBox="0 0 180 60" id="Rectangle_3" xmlns="http://www.w3.org/2000/svg"><path fill="#1D1D1F" d="M0 0h180v60H0z"/></symbol><symbol fill="none" viewBox="0 0 31 18" id="arrow1" xmlns="http://www.w3.org/2000/svg"><path fill-rule="evenodd" clip-rule="evenodd" d="M.347.378c.11-.12.24-.215.384-.28a1.1 1.1 0 01.907 0c.143.065.274.16.384.28l13.35 14.517L28.723.378c.222-.242.523-.377.837-.377.314 0 .615.135.837.377.222.241.347.568.347.91 0 .341-.125.668-.347.91L16.21 17.622c-.11.12-.24.215-.384.28a1.1 1.1 0 01-.906 0 1.181 1.181 0 01-.384-.28L.347 2.198A1.298 1.298 0 01.09 1.78a1.383 1.383 0 010-.985C.15.639.237.497.347.378z" fill="#00C399"/></symbol><symbol fill="none" viewBox="0 0 31 18" id="arrow2" xmlns="http://www.w3.org/2000/svg"><path fill-rule="evenodd" clip-rule="evenodd" d="M30.396 17.622c-.11.12-.24.215-.383.28a1.1 1.1 0 01-.907 0 1.181 1.181 0 01-.384-.28L15.372 3.105 2.02 17.622a1.138 1.138 0 01-.837.377c-.314 0-.615-.135-.837-.377a1.346 1.346 0 01-.347-.91c0-.341.125-.668.347-.91L14.534.378c.11-.12.24-.215.384-.28a1.1 1.1 0 01.907 0c.143.065.274.16.384.28l14.188 15.424c.11.12.197.262.257.418a1.383 1.383 0 010 .985c-.06.156-.147.298-.258.417z" fill="#E43131"/></symbol><symbol viewBox="0 0 29 34" id="girl" xmlns="http://www.w3.org/2000/svg"><g stroke="#201009" stroke-width=".5" fill="none" fill-rule="evenodd" stroke-linecap="round" stroke-linejoin="round"><path d="M22.3 24.4c-2.1 2.2-5 3.5-8.3 3.5-3 0-5.8-1.2-7.9-3.1m.8-8.9c1.4-1.5 2.7-1.5 4.1 0m6 0c1.4-1.5 2.7-1.5 4.1 0M9 22.5c3.4 2.2 6.8 2.2 10.1 0m-13 2.4c-.5-.4-.8-.7-1.3-1.7m21-7.3c.1 1-.1 2.2-.3 3.3m-2.3-9.5c.4 1.4 1 2.9 2 4.2"/><path d="M9.9 33.3c-.4.2-4.4-3.3-5.1-9.4-.2-1.7-.1-3.5.3-5.6 1.4-7 13.4-5 15.3-10.4 0 0 .3 4.8 2.6 7.8 2.4 3.1-1.9 11.6-1.9 11.6s7.2-2.7 7.2-10.3c0-7.6-2.5-12.2-6.4-12.5C21 2.1 17.4 1 14.8 1 6.1 1 .5 6.8.5 16.8.4 34.3 9.9 33.3 9.9 33.3z"/><path d="M4.1 13.1c-.7 2-1.1 4.4-1.1 7M17.3 4.3c-4.8 0-8.7 1.8-11.2 5.1"/></g></symbol><symbol viewBox="0 0 28 27" id="man" xmlns="http://www.w3.org/2000/svg"><g stroke="#201009" stroke-width=".5" fill="none" fill-rule="evenodd" stroke-linecap="round" stroke-linejoin="round"><path d="M27 10.8c.4 1.1.6 2.3.6 3.6C27.6 20.8 22.4 26 16 26 9.6 26 4.4 20.8 4.4 14.4c0-1.2.2-2.4.5-3.5m4 3c1.4-1.5 2.7-1.5 4.1 0m6 0c1.4-1.5 2.7-1.5 4.1 0M11 20.5c3.4 2.2 6.8 2.2 10.1 0M20.2 2.4c-2.4-.6-5.4-.4-8.3.1-5 .8-7 4.4-7 8.3 7.7-1 15.7-2.7 22.1 0 0-3.8-1.8-7.1-6.8-8.4zm-3.9-.3c-3.7 0-7 4.7-7.3 8.3m7.6-8.3c3.5 0 6.6 4.4 7.1 7.8"/><path d="M16.8 9.5c.1-1.4-.1-5.1-.5-7.4h.3"/><ellipse cx="16.6" cy="1.5" rx="1.2" ry="1"/><path d="M4.9 10.9L.6 12.8"/></g></symbol></svg>