<svg width="34" height="26" viewBox="0 0 34 26" fill="none" xmlns="http://www.w3.org/2000/svg">
<mask id="mask0_15_312" style="mask-type:alpha" maskUnits="userSpaceOnUse" x="0" y="0" width="34" height="26">
<path fill-rule="evenodd" clip-rule="evenodd" d="M6.09615 3.26923L3.5 9.5C1.84315 9.5 0.5 10.8431 0.5 12.5V20C0.5 21.6569 1.84314 23 3.5 23H30.5C32.1569 23 33.5 21.6569 33.5 20V12.5C33.5 10.8431 32.1569 9.5 30.5 9.5L27.9038 3.26923C27.2051 1.59232 25.5667 0.5 23.75 0.5H10.25C8.43335 0.5 6.79487 1.59232 6.09615 3.26923ZM26.75 9.5L24.865 4.47331C24.6454 3.88786 24.0858 3.5 23.4605 3.5H10.5395C9.9142 3.5 9.3546 3.88786 9.135 4.47332L7.25 9.5H26.75ZM3.5 14C3.5 15.6569 4.84315 17 6.5 17H12.5C10.8431 17 9.5 15.6569 9.5 14H3.5ZM30.5 14C30.5 15.6569 29.1569 17 27.5 17H21.5C23.1569 17 24.5 15.6569 24.5 14H30.5Z" fill="black"/>
<path opacity="0.5" fill-rule="evenodd" clip-rule="evenodd" d="M27.5 23H30.5C32.1569 23 33.5 21.6569 33.5 20V26H27.5V23ZM0.5 20V26H6.5V23H3.5C1.84314 23 0.5 21.6569 0.5 20Z" fill="black"/>
</mask>
<g mask="url(#mask0_15_312)">
<path d="M-1 -4H35V32H-1V-4Z" fill="#5C636B"/>
</g>
</svg>
