<svg width="35" height="36" viewBox="0 0 35 36" fill="none" xmlns="http://www.w3.org/2000/svg">
<mask id="mask0_15_326" style="mask-type:alpha" maskUnits="userSpaceOnUse" x="-1" y="0" width="36" height="36">
<path fill-rule="evenodd" clip-rule="evenodd" d="M17 0.75C7.47309 0.75 -0.25 8.47309 -0.25 18C-0.25 27.5269 7.47309 35.25 17 35.25C26.5269 35.25 34.25 27.5269 34.25 18C34.25 8.47309 26.5269 0.75 17 0.75ZM12.5 16.4997V9L18.4401 9.00036C19.966 9.00046 21.5475 9.23062 22.6722 10.2619C23.5937 11.1069 24.5 12.4065 24.5 14.25C24.5 16.0931 23.5942 17.3926 22.6729 18.2377C21.5479 19.2697 19.9656 19.5 18.439 19.5H16.25V21.0615H21.5C21.5 22.6844 20.1844 24 18.5615 24H16.25V24.0938C16.25 25.7506 14.9069 27.0938 13.25 27.0938H12.5V24L10.25 23.9382V23.2506C10.25 22.0176 11.2675 21.0277 12.5 21.0615V19.5L10.25 19.4382V18.6888C10.25 17.4559 11.2675 16.4659 12.5 16.4997ZM18.5 11.9997L16.25 12V16.4997H18.5C18.5 16.4997 20.75 16.6587 20.75 14.3292C20.75 11.9997 18.5 11.9997 18.5 11.9997Z" fill="url(#paint0_linear_15_326)"/>
</mask>
<g mask="url(#mask0_15_326)">
<path d="M35 0H-1V36H35V0Z" fill="#5C636B"/>
</g>
<defs>
<linearGradient id="paint0_linear_15_326" x1="4.7" y1="5.7" x2="27.8" y2="28.8" gradientUnits="userSpaceOnUse">
<stop/>
<stop offset="1" stop-opacity="0.7"/>
</linearGradient>
</defs>
</svg>
